<?xml version="1.0" encoding="UTF-8"?>
<svg width="1200pt" height="1200pt" version="1.1" viewBox="0 0 1200 1200" xmlns="http://www.w3.org/2000/svg">
 <path d="m599.8 1040.2c242.64 0 440.07-197.43 440.07-440.07s-197.43-440.07-440.07-440.07-440.07 197.43-440.07 440.07c0 242.64 197.43 440.07 440.07 440.07zm0-840.14c220.64 0 400.07 179.43 400.07 400.07 0 220.64-179.43 400.07-400.07 400.07s-400.07-179.43-400.07-400.07c0-220.64 179.43-400.07 400.07-400.07z"/>
 <path d="m599.8 300.05c11 0 20.004-9 20.004-20.004v-40.008c0-11-9-20.004-20.004-20.004-11 0-20.004 9-20.004 20.004v40.008c0 11 9 20.004 20.004 20.004z"/>
 <path d="m599.8 900.15c-11 0-20.004 9-20.004 20.004v40.008c0 11 9 20.004 20.004 20.004 11 0 20.004-9 20.004-20.004v-40.008c0-11-9.0039-20.004-20.004-20.004z"/>
 <path d="m919.85 620.1h40.008c11 0 20.004-9 20.004-20.004 0-11-9-20.004-20.004-20.004h-40.008c-11 0-20.004 9-20.004 20.004 0.003906 11.004 9.0039 20.004 20.004 20.004z"/>
 <path d="m279.75 580.1h-40.008c-11 0-20.004 9-20.004 20.004 0 11 9 20.004 20.004 20.004h40.008c11 0 20.004-9 20.004-20.004 0-11.004-9-20.004-20.004-20.004z"/>
 <path d="m379.76 820.14c5.1992 0 10.203-2 14.203-5.8008l165.43-165.43c11.801 7 25.605 11.402 40.406 11.402 44.207 0 80.012-35.805 80.012-80.012 0-37.207-25.605-68.211-60.012-77.211l0.007813-103.02c0-11-9-20.004-20.004-20.004-11 0-20.004 9-20.004 20.004v102.82c-34.406 9-60.012 40.008-60.012 77.211 0 14.801 4.4023 28.406 11.402 40.406l-165.43 165.43c-7.8008 7.8008-7.8008 20.402 0 28.203 3.8008 4.0078 8.8008 6.0078 14 6.0078zm220.04-280.05c22.004 0 40.008 18.004 40.008 40.008s-18.004 40.008-40.008 40.008c-22.004 0-40.008-18.004-40.008-40.008s18.004-40.008 40.008-40.008z"/>
 <path d="m201.33 200.04h158.43c11 0 20.004-9 20.004-20.004 0-11-9-20.004-20.004-20.004h-106.02c98.418-77.812 219.44-120.02 346.06-120.02 308.85 0 560.09 251.24 560.09 560.09 0 11 9 20.004 20.004 20.004 11 0 20.004-9 20.004-20.004 0-330.86-269.25-600.1-600.1-600.1-139.62 0-272.84 48.207-380.06 136.22l0.003906-116.22c0-11-9-20.004-20.004-20.004-11 0-20.004 9-20.004 20.004v180.03h17.805c1.3984 0.19922 2.5977 0.19922 3.7969 0z"/>
 <path d="m166.73 986.16c-8 7.6016-8.2031 20.203-0.60156 28.203 3.8008 4.1992 9.2031 6.1992 14.402 6.1992 5 0 10-1.8008 13.801-5.6016 8-7.6016 8.4023-20.203 0.60156-28.203-7.5977-8-20.199-8.1992-28.203-0.59766z"/>
 <path d="m157.12 942.96c-6.8008-8.8008-19.203-10.402-28.004-3.6016-8.8008 6.8008-10.402 19.402-3.6016 28.004 4 5.1992 10 7.8008 15.801 7.8008 4.4023 0 8.6016-1.3984 12.402-4.1992 8.6055-6.8008 10.203-19.402 3.4023-28.004z"/>
 <path d="m255.34 1067c-6.4023 9-4 21.402 5 27.805 3.6016 2.4023 7.4023 3.4023 11.402 3.4023 6.4023 0 12.602-3 16.402-8.6016 6.4023-9 4-21.605-5-27.805-9.2031-6.2031-21.605-4-27.805 5.1992z"/>
 <path d="m124.12 895.35c-5.8008-9.4023-18.203-12.203-27.605-6.4023-9.4023 6-12.203 18.203-6.4023 27.605 3.8008 6 10.402 9.4023 17.004 9.4023 3.6016 0 7.2031-1 10.602-3 9.4023-5.8008 12.203-18.203 6.4023-27.605z"/>
 <path d="m20.102 642.51h0.80078c11.004-0.40234 19.605-9.8008 19.203-20.805-0.39844-11-9.8008-19.602-20.805-19.203-11 0.40234-19.602 9.6016-19.199 20.805 0.39844 10.602 9.3984 19.203 20 19.203z"/>
 <path d="m332.36 1092.2c-9.6016-5.4023-21.805-1.8008-27.203 8-5.1992 9.6016-1.6016 21.805 8.2031 27.004 3 1.8008 6.1992 2.6016 9.4023 2.6016 7.2031 0 14.004-3.8008 17.602-10.602 5.3984-9.6016 1.7969-21.805-8.0039-27.004z"/>
 <path d="m28.305 701.92c11-1.6016 18.602-11.602 17.004-22.605-1.6016-11-11.801-18.602-22.605-17.004-11 1.6016-18.602 11.801-17.004 22.605 1.3984 10 10 17.203 19.805 17.203 1 0 1.8008 0 2.8008-0.19922z"/>
 <path d="m96.117 844.74c-5-10-16.805-14.004-26.805-9.2031-10 4.8008-14.004 16.805-9.2031 26.805 3.4023 7 10.602 11.203 18.004 11.203 2.8008 0 5.8008-0.60156 8.6016-2 10-4.8008 14.203-16.805 9.4023-26.805z"/>
 <path d="m41.906 760.53c10.602-2.8008 17.203-13.602 14.602-24.402-2.8008-10.602-13.602-17.203-24.402-14.402-10.602 2.6016-17.203 13.402-14.402 24.203 2.1992 9 10.402 15.203 19.402 15.203 1.6016-0.003906 3.2031-0.20312 4.8008-0.60156z"/>
 <path d="m73.312 791.53c-3.6016-10.402-15.203-15.801-25.605-12.004-10.402 3.8008-15.602 15.203-11.801 25.605 2.8008 8.2031 10.602 13.203 18.602 13.203 2.4023 0 4.6016-0.39844 7-1.1992 10.402-3.8008 15.605-15.203 11.805-25.605z"/>
 <path d="m208.93 1028.8c-7.2031 8.4023-6.1992 21.004 2.1992 28.203 3.8008 3.1992 8.4023 4.8008 13.004 4.8008 5.6016 0 11.203-2.4023 15.203-7 7.2031-8.4023 6.1992-21.004-2.1992-28.203-8.4023-7.1992-21.004-6.1992-28.207 2.1992z"/>
 <path d="m1113.9 869.34c-9.6016-5.4023-21.805-2-27.406 7.6016h0.19922c-5.6016 9.6016-2.1992 21.805 7.4023 27.203 3 1.8008 6.4023 2.6016 9.8008 2.6016 7 0 13.801-3.6016 17.402-10 5.6016-9.6016 2.2031-21.805-7.3984-27.406z"/>
 <path d="m1055.3 925.55c-6.4023 9-4.4023 21.605 4.6016 28.004 3.6016 2.6016 7.6016 3.8008 11.602 3.8008 6.4023 0 12.402-3 16.402-8.4023 6.4023-9 4.4023-21.402-4.6016-28.004-9.0039-6.4023-21.605-4.1992-28.004 4.6016z"/>
 <path d="m1019.3 970.96c-7.4023 8.2031-6.6016 20.805 1.6016 28.203 3.8008 3.4023 8.6016 5 13.203 5 5.6016 0 11-2.1992 15.004-6.8008 7.4023-8.2031 6.6016-20.805-1.6016-28.203-8.4023-7.1992-21.004-6.6016-28.207 1.8008z"/>
 <path d="m978.66 1012.4c-8.2031 7.4023-8.8008 20.004-1.1992 28.203 4 4.1992 9.4023 6.4023 14.801 6.4023 4.8008 0 9.6016-1.8008 13.402-5.1992 8.2031-7.6016 8.6016-20.203 1.1992-28.203-7.4023-8.2031-20.203-8.8047-28.203-1.2031z"/>
 <path d="m934.05 1049.2c-8.8008 6.6016-10.602 19.203-4 28.004 3.8008 5.4023 9.8008 8 16.004 8 4.1992 0 8.4023-1.1992 11.801-3.8008 9-6.6016 10.801-19.203 4.1992-28.004-6.5977-9-19.203-10.801-28.004-4.1992z"/>
 <path d="m1178.9 640.11c-11-1.1992-20.805 6.8008-22.004 17.805-1.1992 11 6.8008 20.805 17.805 22.004h2.1992c10 0 18.805-7.6016 19.805-18.004 1.1992-10.801-6.8008-20.805-17.805-21.805z"/>
 <path d="m1139.1 814.94c-10.203-4.4023-22.004 0.19922-26.406 10.203-4.6016 10.203 0 22.004 10.203 26.406 2.6016 1.1992 5.4023 1.8008 8 1.8008 7.8008 0 15.004-4.6016 18.402-12.004 4.4023-10.207-0.19922-22.008-10.199-26.406z"/>
 <path d="m1171.7 699.71c-10.801-2.4023-21.402 4.6016-23.605 15.402-2.4023 10.801 4.6016 21.402 15.402 23.605 1.3984 0.39844 2.8008 0.39844 4.1992 0.39844 9.2031 0 17.602-6.4023 19.402-15.801 2.4062-10.801-4.5977-21.402-15.398-23.605z"/>
 <path d="m1158.3 758.12c-10.402-3.4023-21.805 2.4023-25.004 13.004-3.4023 10.402 2.4023 21.805 12.801 25.203 2 0.60156 4.1992 0.80078 6.1992 0.80078 8.4023 0 16.203-5.4023 19.004-13.801 3.4023-10.602-2.3984-21.805-13-25.207z"/>
 <path d="m384.56 1117.2c-10.203-4.1992-21.805 0.60156-26.004 10.801-4.4023 10.203 0.39844 21.805 10.602 26.203 2.6016 1 5.1992 1.3984 7.8008 1.3984 7.8008 0 15.203-4.6016 18.402-12.203 4.2031-10.199-0.59766-22-10.801-26.199z"/>
 <path d="m610.6 1160c-11 0.19922-19.805 9.4023-19.602 20.402 0.19922 11 9.2031 19.602 20.004 19.602h0.39844c11-0.19922 19.805-9.2031 19.602-20.402-0.19922-11-9.3984-19.801-20.402-19.602z"/>
 <path d="m495.38 1150.4c-10.801-2-21.402 5-23.402 16.004-2 10.801 5 21.203 16.004 23.402 1.1992 0.19922 2.4023 0.19922 3.6016 0.19922 9.4023 0 17.805-6.6016 19.805-16.203 1.9961-10.801-5.207-21.402-16.008-23.402z"/>
 <path d="m552.79 1158.2c-11-1-20.805 7.2031-21.605 18.203-1 11.203 7.2031 20.805 18.203 21.805v-0.19922c0.60156 0.19922 1.1992 0.19922 1.6016 0.19922 10.402 0 19.203-8 20.004-18.402 0.80078-11.004-7.2031-20.605-18.203-21.605z"/>
 <path d="m439.17 1136.8c-10.602-3.1992-21.805 2.8008-25.004 13.203-3 10.602 2.8008 21.805 13.402 25.004 2 0.60156 4 0.80078 5.8008 0.80078 8.6016 0 16.602-5.6016 19.203-14.203 3.2031-10.602-2.8008-21.805-13.402-24.805z"/>
 <path d="m885.85 1081.4c-9.4023 5.8008-12.602 18.004-6.8008 27.406 3.6016 6.4023 10.402 9.8008 17.203 9.8008 3.4023 0 7-0.80078 10.203-2.8008 9.4023-5.6016 12.602-18.004 6.8008-27.406-5.6016-9.3984-17.805-12.602-27.406-7z"/>
 <path d="m781.03 1130.2c-10.402 3.4023-16.004 14.801-12.402 25.402 2.8008 8.2031 10.602 13.402 18.805 13.402 2.1992 0 4.4023-0.39844 6.6016-1 10.402-3.6016 16.004-15.004 12.402-25.402-3.6055-10.602-15.004-16.004-25.406-12.402z"/>
 <path d="m834.84 1108.6c-10.203 4.6016-14.402 16.402-9.8008 26.406 3.4023 7.4023 10.602 11.602 18.203 11.602 2.8008 0 5.6016-0.60156 8.4023-1.8008 10-4.6016 14.402-16.602 9.6016-26.605-4.6016-10.004-16.406-14.402-26.406-9.6016z"/>
 <path d="m725.42 1146c-10.801 2.4023-17.602 13.203-15.004 24.004 2 9.2031 10.402 15.402 19.402 15.402 1.6016 0 3 0 4.6016-0.39844 10.602-2.4023 17.402-13.203 15.004-24.004-2.6016-10.805-13.203-17.406-24.004-15.004z"/>
 <path d="m668.41 1156c-11 1.3984-18.805 11.402-17.402 22.203 1.1992 10.203 9.8008 17.602 19.805 17.602 0.80078 0 1.6016 0 2.4023-0.19922v0.19922c11-1.3984 18.805-11.402 17.402-22.402-1.2031-11-11.203-18.801-22.207-17.402z"/>
</svg>
