<?xml version="1.0" encoding="UTF-8"?>
<svg width="100pt" height="100pt" version="1.1" viewBox="0 0 100 100" xmlns="http://www.w3.org/2000/svg">
 <path d="m59.023 25.004 24.934 0.51953-1.5625 5.6406-24.934-0.51562z"/>
 <path d="m45.379 75.109 0.50391-1.8125 3.1523-11.402 0.55469-2 3.1016-11.215 0.55469-2.0039 3.6562-13.219 11.609 0.24219-3.6562 13.219-0.55469 2.0039-3.1016 11.215-0.55469 2.0039-3.1523 11.402-0.50391 1.8164-3.707 13.402-11.609-0.24219zm15.242-39.516-2.7539-0.058594-1.4375 5.207 2.7539 0.058593zm-1.6484 5.9609-2.7539-0.054688-1.4414 5.207 2.7578 0.050781zm4.5352-5.9023-2.3398-0.046875-1.4375 5.2031 2.3359 0.050781zm-1.6523 5.9648-2.3359-0.046876-1.4375 5.1992 2.3398 0.042969zm4.7812-5.8984-2.582-0.054688-1.4414 5.207 2.582 0.054687zm-1.6484 5.9648-2.582-0.054688-1.4336 5.1914 2.5859 0.046876zm-2.0078 7.2539-0.36719 0.55469-2.875 10.352-8.2148-0.19141-0.40234 0.27344 2.6211 0.054688 6.1523 0.10547zm-10.449 37.766 3.0859-11.145-0.36719 0.55469-2.875 10.348-8.2148-0.1875-0.41797 0.28125zm3.707-13.402 3.0859-11.145-0.36719 0.55469-2.8789 10.352-8.2109-0.19141-0.41797 0.28125z"/>
 <path d="m58.406 75.383 0.50391-1.8164 3.1523-11.402 0.55469-2.0039 3.1016-11.215 0.55469-2.0039 3.6523-13.219 11.609 0.24219-3.6562 13.219-0.55469 2.0039-3.1055 11.215-0.55078 2-3.1562 11.402-0.50391 1.8164-3.7109 13.402-11.605-0.24219zm15.238-39.52-2.7539-0.058593-1.4414 5.207 2.7539 0.058593zm-1.6523 5.9648-2.7539-0.058594-1.4375 5.207 2.7539 0.050782zm4.5391-5.9023-2.3359-0.050781-1.4375 5.207 2.3359 0.046875zm-1.6523 5.9609-2.3359-0.050781-1.4375 5.1992 2.3398 0.042969zm4.7812-5.8984-2.582-0.054687-1.4375 5.207 2.582 0.054687zm-1.6484 5.9648-2.582-0.054687-1.4375 5.1914 2.5859 0.046875zm-2.0078 7.2539-0.36719 0.55469-2.875 10.348-8.2109-0.1875-0.40234 0.27344 2.6211 0.054688 6.1523 0.10547zm-10.449 37.766 3.0859-11.145-0.36719 0.55078-2.875 10.352-8.2148-0.19141-0.41406 0.28125zm3.707-13.402 3.082-11.145-0.36328 0.55469-2.875 10.348-8.2109-0.19141-0.41797 0.28125z"/>
 <path d="m37.219 18.68 17.637 11.324 1.5781-5.6602-17.637-11.32z"/>
 <path d="m42.285 74.48 0.50781-1.8164 3.1836-11.434 0.55859-2.0078 3.1328-11.242 0.55859-2.0078 3.6914-13.254-8.2109-5.2734-3.6914 13.254-0.55859 2.0078-3.1328 11.246-0.55859 2.0078-3.1836 11.434-0.50781 1.8203-3.7422 13.441 8.2109 5.2695zm5.9883-42.969 1.6523 1.0625-1.4531 5.2188-1.6523-1.0586zm-1.6641 5.9805 1.6484 1.0586-1.4492 5.2109-1.6484-1.0664zm-0.54688-7.4023 1.8281 1.1719-1.4531 5.2188-1.8242-1.1719zm-1.668 5.9805 1.8242 1.1719-1.4492 5.2031-1.8242-1.1797zm-12.57 45.141 3.1094-11.176-0.007813 0.65625-2.8828 10.383 5.8203 3.7148 0.15625 0.44141zm3.7422-13.441 3.1133-11.176-0.007813 0.65625-2.8828 10.387 5.8164 3.7148 0.16016 0.44141zm8.0312-10.438-4.3438-2.8164 3.1133-11.176-0.003907 0.66016-2.8828 10.383 5.8164 3.7148 0.15234 0.42969zm5.5469-12.059-1.9453-1.2578 1.4531-5.2109 1.9453 1.25zm1.6641-5.9805-1.9453-1.25 1.4531-5.2188 1.9492 1.25z"/>
 <path d="m33.074 68.566 0.50781-1.8203 3.1836-11.434 0.55859-2.0078 3.1328-11.246 0.55859-2.0078 3.6914-13.25-8.2109-5.2695-3.6914 13.25-0.55859 2.0078-3.1328 11.246-0.55859 2.0078-3.1836 11.434-0.50781 1.8164-3.7422 13.441 8.2109 5.2695zm5.9883-42.969 1.6523 1.0586-1.4531 5.2188-1.6523-1.0625zm-1.1562 15.973-2.2188 7.9609-3.3008-2.1484 2.2344-7.9492zm-0.50781-9.9922 1.6523 1.0625-1.4531 5.2109-1.6484-1.0664zm-0.55078-7.4023 1.8281 1.1719-1.4531 5.2188-1.8281-1.1719zm-1.6641 5.9805 1.8281 1.1719-1.4492 5.2031-1.8242-1.1797zm-12.574 45.141 3.1094-11.176-0.003906 0.65625-2.8789 10.383 5.8203 3.7148 0.15625 0.44141zm3.7461-13.441 3.1133-11.176-0.003906 0.65625-2.8828 10.383 5.8203 3.7109 0.15625 0.44141zm8.0312-10.438-4.3438-2.8125 3.1133-11.176-0.007812 0.65625-2.8789 10.383 5.8164 3.7109 0.15234 0.42969zm5.5469-12.059-1.9453-1.2578 1.4531-5.2109 1.9492 1.25zm1.6641-5.9805-1.9492-1.25 1.4531-5.2188 1.9453 1.25z"/>
 <path d="m64.523 12.91h0.003906v0.089844h-0.003906z"/>
 <path d="m64.539 12.91 0.015626-0.054687z"/>
 <path d="m69.836 89.672-1.5391-0.88281 16.141-58.34 0.84375 0.019531 1.1602-4.2031-0.84375-0.019531 0.3125-1.1367-2.3164-1.8398 0.22266-0.80078-1.0742-1.0117 0.41797-1.5117-17.098-8.6211 0.48047-1.7148 1.9805-0.35156-3.6719-4.2188-4.9609 2.0586 1.0547 1.0273-0.54687 1.9453-18.707-1.6484-0.51562 1.8477-1.1367 0.046875-0.30859 1.1094-2.1016 0.3125-0.17969 0.64844-0.73438 0.10938-1.1758 4.2148 0.59766 0.38281-16.32 58.586-1.4609-0.054688-0.98438 3.5312 20.855 13.898 30.633 0.13672zm-7-79.75 2.9336-0.17969-1.2812 5.1562-3.1562 0.48828-1.2461-1.5273 1.4023-5.3047zm-33.371 72.703-8.668-5.5664 15.652-56.191 8.668 5.5664zm9.2422 5.9375-8.707-5.5898 15.652-56.191 8.7109 5.5938zm17.793-62.926h-0.027344l-0.31641 1.1445-1.1523 3.8281-18.117-11.695 1.8438-6.6445 0.625 0.5-0.011719 0.046875 15.57 9.9961 0.007813 0.003906 2.0352 1.3047zm-15.367 63.324 15.504-56.047 12.312 0.25781-15.508 56.047zm13.07 0.26953 15.508-56.043 12.258 0.25391-15.508 56.043zm28.406-57.68-25.648-0.47656 1.8359-6.6133 24.324 0.50391 0.003906-0.015625 1.3203-0.019531z"/>
</svg>
